HIERARCHY
ROOT Hips
{
	OFFSET 0.000000 71.427986 0.000000
	CHANNELS 6 Xposition Yposition Zposition Xrotation Yrotation Zrotation
	JOINT Pelvis
	{
		OFFSET 0.000000 0.000000 0.000000
		CHANNELS 3 Xrotation Yrotation Zrotation
		JOINT LeftUpLeg
		{
			OFFSET 6.797100 -2.508499 -1.318700
			CHANNELS 3 Xrotation Yrotation Zrotation
			JOINT LeftLeg
			{
				OFFSET 0.069008 -29.241863 0.690200
				CHANNELS 3 Xrotation Yrotation Zrotation
				JOINT LeftFoot
				{
					OFFSET -0.069008 -29.568123 -0.266800
					CHANNELS 3 Xrotation Yrotation Zrotation
					JOINT LeftToeBase
					{
						OFFSET 3.145500 -8.631000 16.059900
						CHANNELS 3 Xrotation Yrotation Zrotation
						End Site
						{
							OFFSET 0.000000 18.501587 0.000000
						}
					}
				}
			}
			JOINT Left_ShortSleeve
			{
				OFFSET 0.265923 -10.480953 1.153800
				CHANNELS 3 Xrotation Yrotation Zrotation
				End Site
				{
					OFFSET 1.725763 19.823879 0.000000
				}
			}
		}
		JOINT RightUpLeg
		{
			OFFSET -6.797100 -2.508499 -1.318700
			CHANNELS 3 Xrotation Yrotation Zrotation
			JOINT RightLeg
			{
				OFFSET -0.082453 -29.241932 0.688000
				CHANNELS 3 Xrotation Yrotation Zrotation
				JOINT RightFoot
				{
					OFFSET 0.082453 -29.568058 -0.264600
					CHANNELS 3 Xrotation Yrotation Zrotation
					JOINT RightToeBase
					{
						OFFSET -3.115300 -8.682800 16.113400
						CHANNELS 3 Xrotation Yrotation Zrotation
						End Site
						{
							OFFSET 0.000000 18.567114 0.000000
						}
					}
				}
			}
			JOINT Right_ShortSleeve
			{
				OFFSET -0.265923 -10.480953 1.153800
				CHANNELS 3 Xrotation Yrotation Zrotation
				End Site
				{
					OFFSET -1.725766 19.823910 0.000000
				}
			}
		}
	}
	JOINT Spine
	{
		OFFSET 0.000000 13.368103 0.470500
		CHANNELS 3 Xrotation Yrotation Zrotation
		JOINT Spine1
		{
			OFFSET 0.147000 13.837402 0.538800
			CHANNELS 3 Xrotation Yrotation Zrotation
			JOINT Spine2
			{
				OFFSET 0.168000 16.242897 -1.435500
				CHANNELS 3 Xrotation Yrotation Zrotation
				JOINT Neck
				{
					OFFSET 0.217200 18.631500 -1.679100
					CHANNELS 3 Xrotation Yrotation Zrotation
					JOINT Head
					{
						OFFSET 0.000000 6.599396 1.385900
						CHANNELS 3 Xrotation Yrotation Zrotation
						JOINT Hat
						{
							OFFSET -0.532200 27.220596 -10.096100
							CHANNELS 3 Xrotation Yrotation Zrotation
							End Site
							{
								OFFSET 0.000000 22.029861 0.000000
							}
						}
						JOINT HairD
						{
							OFFSET -10.777400 17.437393 -1.325900
							CHANNELS 3 Xrotation Yrotation Zrotation
							JOINT HairD1
							{
								OFFSET -3.290299 -11.051193 1.062200
								CHANNELS 3 Xrotation Yrotation Zrotation
								End Site
								{
									OFFSET 0.000000 11.579437 0.000000
								}
							}
						}
						JOINT HairB
						{
							OFFSET -10.777400 17.437393 1.467900
							CHANNELS 3 Xrotation Yrotation Zrotation
							JOINT HairB1
							{
								OFFSET -1.561200 -12.956299 3.590200
								CHANNELS 3 Xrotation Yrotation Zrotation
								End Site
								{
									OFFSET 0.000000 13.534866 0.000000
								}
							}
						}
						JOINT HairA
						{
							OFFSET 9.713100 17.437393 1.467900
							CHANNELS 3 Xrotation Yrotation Zrotation
							JOINT HairA1
							{
								OFFSET 1.561200 -12.956299 3.590200
								CHANNELS 3 Xrotation Yrotation Zrotation
								End Site
								{
									OFFSET 0.000000 13.534866 0.000000
								}
							}
						}
						JOINT HairC
						{
							OFFSET 9.713100 17.437393 -1.325900
							CHANNELS 3 Xrotation Yrotation Zrotation
							JOINT HairC1
							{
								OFFSET 3.290300 -11.051193 1.062200
								CHANNELS 3 Xrotation Yrotation Zrotation
								End Site
								{
									OFFSET 0.000000 11.579437 0.000000
								}
							}
						}
					}
				}
				JOINT LeftShoulder
				{
					OFFSET 5.101800 15.108002 -2.763700
					CHANNELS 3 Xrotation Yrotation Zrotation
					JOINT LeftArm
					{
						OFFSET 9.825497 2.506317 -1.597400
						CHANNELS 3 Xrotation Yrotation Zrotation
						JOINT LeftForeArm
						{
							OFFSET 21.966244 0.000000 0.000000
							CHANNELS 3 Xrotation Yrotation Zrotation
							JOINT LeftHand
							{
								OFFSET 33.879036 0.000000 0.000000
								CHANNELS 3 Xrotation Yrotation Zrotation
								JOINT LeftHandThumb1
								{
									OFFSET 6.715286 -2.359680 3.363841
									CHANNELS 3 Xrotation Yrotation Zrotation
									JOINT LeftHandThumb2
									{
										OFFSET 2.507072 -1.447464 1.447461
										CHANNELS 3 Xrotation Yrotation Zrotation
										JOINT LeftHandThumb3
										{
											OFFSET 2.898338 -1.673355 1.673357
											CHANNELS 3 Xrotation Yrotation Zrotation
											End Site
											{
												OFFSET -0.295959 3.727692 -0.131651
											}
										}
									}
								}
								JOINT LeftHandIndex1
								{
									OFFSET 14.190811 -0.254547 3.840278
									CHANNELS 3 Xrotation Yrotation Zrotation
									JOINT LeftHandIndex2
									{
										OFFSET 3.551727 0.000000 -0.000000
										CHANNELS 3 Xrotation Yrotation Zrotation
										JOINT LeftHandIndex3
										{
											OFFSET 2.894196 0.000000 0.000000
											CHANNELS 3 Xrotation Yrotation Zrotation
											End Site
											{
												OFFSET -1.000603 2.690872 0.366626
											}
										}
									}
								}
								JOINT LeftHandMiddle1
								{
									OFFSET 13.776489 0.000000 0.000000
									CHANNELS 3 Xrotation Yrotation Zrotation
									JOINT LeftHandMiddle2
									{
										OFFSET 3.438232 0.000000 0.000000
										CHANNELS 3 Xrotation Yrotation Zrotation
										JOINT LeftHandMiddle3
										{
											OFFSET 3.691551 0.000000 0.000000
											CHANNELS 3 Xrotation Yrotation Zrotation
											End Site
											{
												OFFSET -1.082298 3.499527 0.457670
											}
										}
									}
								}
								JOINT LeftHandRing1
								{
									OFFSET 13.966164 -0.268127 -3.067488
									CHANNELS 3 Xrotation Yrotation Zrotation
									JOINT LeftHandRing2
									{
										OFFSET 3.162567 0.000000 0.000000
										CHANNELS 3 Xrotation Yrotation Zrotation
										JOINT LeftHandRing3
										{
											OFFSET 3.324348 0.000000 0.000000
											CHANNELS 3 Xrotation Yrotation Zrotation
											End Site
											{
												OFFSET -0.861900 3.184998 0.405154
											}
										}
									}
								}
								JOINT LeftHandPinky1
								{
									OFFSET 13.131393 -0.168503 -5.746925
									CHANNELS 3 Xrotation Yrotation Zrotation
									JOINT LeftHandPinky2
									{
										OFFSET 2.849182 0.000000 0.000000
										CHANNELS 3 Xrotation Yrotation Zrotation
										JOINT LeftHandPinky3
										{
											OFFSET 2.805038 0.000000 0.000000
											CHANNELS 3 Xrotation Yrotation Zrotation
											End Site
											{
												OFFSET -0.882500 2.642609 0.325652
											}
										}
									}
								}
							}
							JOINT Left_Sleeve
							{
								OFFSET 6.592125 -0.646545 0.805568
								CHANNELS 3 Xrotation Yrotation Zrotation
								End Site
								{
									OFFSET -0.000179 20.275787 -0.000000
								}
							}
						}
					}
				}
				JOINT RightShoulder
				{
					OFFSET -5.731700 15.108002 -2.763700
					CHANNELS 3 Xrotation Yrotation Zrotation
					JOINT RightArm
					{
						OFFSET -9.825497 2.506317 -1.597400
						CHANNELS 3 Xrotation Yrotation Zrotation
						JOINT RightForeArm
						{
							OFFSET -21.966242 0.000000 0.000000
							CHANNELS 3 Xrotation Yrotation Zrotation
							JOINT RightHand
							{
								OFFSET -33.879032 0.000000 0.000000
								CHANNELS 3 Xrotation Yrotation Zrotation
								JOINT RightHandThumb1
								{
									OFFSET -6.715286 -2.359680 3.363841
									CHANNELS 3 Xrotation Yrotation Zrotation
									JOINT RightHandThumb2
									{
										OFFSET -2.507072 -1.447464 1.447461
										CHANNELS 3 Xrotation Yrotation Zrotation
										JOINT RightHandThumb3
										{
											OFFSET -2.898338 -1.673355 1.673357
											CHANNELS 3 Xrotation Yrotation Zrotation
											End Site
											{
												OFFSET 0.295959 3.727692 -0.131651
											}
										}
									}
								}
								JOINT RightHandIndex1
								{
									OFFSET -14.190811 -0.254547 3.840278
									CHANNELS 3 Xrotation Yrotation Zrotation
									JOINT RightHandIndex2
									{
										OFFSET -3.551727 0.000000 -0.000000
										CHANNELS 3 Xrotation Yrotation Zrotation
										JOINT RightHandIndex3
										{
											OFFSET -2.894196 0.000000 0.000000
											CHANNELS 3 Xrotation Yrotation Zrotation
											End Site
											{
												OFFSET 1.000603 2.690872 0.366626
											}
										}
									}
								}
								JOINT RightHandMiddle1
								{
									OFFSET -13.776489 0.000000 0.000000
									CHANNELS 3 Xrotation Yrotation Zrotation
									JOINT RightHandMiddle2
									{
										OFFSET -3.438232 0.000000 0.000000
										CHANNELS 3 Xrotation Yrotation Zrotation
										JOINT RightHandMiddle3
										{
											OFFSET -3.691551 0.000000 0.000000
											CHANNELS 3 Xrotation Yrotation Zrotation
											End Site
											{
												OFFSET 1.082298 3.499527 0.457670
											}
										}
									}
								}
								JOINT RightHandRing1
								{
									OFFSET -13.966164 -0.268127 -3.067488
									CHANNELS 3 Xrotation Yrotation Zrotation
									JOINT RightHandRing2
									{
										OFFSET -3.162567 0.000000 0.000000
										CHANNELS 3 Xrotation Yrotation Zrotation
										JOINT RightHandRing3
										{
											OFFSET -3.324348 0.000000 0.000000
											CHANNELS 3 Xrotation Yrotation Zrotation
											End Site
											{
												OFFSET 0.861900 3.184998 0.405154
											}
										}
									}
								}
								JOINT RightHandPinky1
								{
									OFFSET -13.131393 -0.168503 -5.746925
									CHANNELS 3 Xrotation Yrotation Zrotation
									JOINT RightHandPinky2
									{
										OFFSET -2.849182 0.000000 0.000000
										CHANNELS 3 Xrotation Yrotation Zrotation
										JOINT RightHandPinky3
										{
											OFFSET -2.805038 0.000000 0.000000
											CHANNELS 3 Xrotation Yrotation Zrotation
											End Site
											{
												OFFSET 0.882500 2.642609 0.325652
											}
										}
									}
								}
							}
							JOINT Right_Sleeve
							{
								OFFSET -6.592125 -0.646545 0.805568
								CHANNELS 3 Xrotation Yrotation Zrotation
								End Site
								{
									OFFSET 0.000179 20.275787 -0.000000
								}
							}
						}
					}
				}
				JOINT Bind_Right_JacketString
				{
					OFFSET -3.534800 11.969597 7.200700
					CHANNELS 3 Xrotation Yrotation Zrotation
					JOINT Bind_Right_JacketString1
					{
						OFFSET -0.319900 -6.102600 2.794100
						CHANNELS 3 Xrotation Yrotation Zrotation
						End Site
						{
							OFFSET 0.000000 6.719452 0.000000
						}
					}
				}
				JOINT Bind_Left_JacketString
				{
					OFFSET 2.904800 11.969597 7.200700
					CHANNELS 3 Xrotation Yrotation Zrotation
					JOINT Bind_Left_JacketString1
					{
						OFFSET 0.364800 -5.904503 3.186800
						CHANNELS 3 Xrotation Yrotation Zrotation
						End Site
						{
							OFFSET 0.000000 6.719513 0.000000
						}
					}
				}
				JOINT HairE
				{
					OFFSET 5.915200 17.612701 -11.592200
					CHANNELS 3 Xrotation Yrotation Zrotation
					JOINT HairE1
					{
						OFFSET 0.289200 -7.171898 -1.284500
						CHANNELS 3 Xrotation Yrotation Zrotation
						End Site
						{
							OFFSET 0.000000 7.291756 0.000000
						}
					}
				}
				JOINT HairF
				{
					OFFSET -0.864800 17.612701 -11.592200
					CHANNELS 3 Xrotation Yrotation Zrotation
					JOINT HairF1
					{
						OFFSET 0.000000 -14.087097 -2.127501
						CHANNELS 3 Xrotation Yrotation Zrotation
						End Site
						{
							OFFSET 0.000000 14.246841 0.000000
						}
					}
				}
				JOINT HairG
				{
					OFFSET -8.087700 17.612701 -11.592200
					CHANNELS 3 Xrotation Yrotation Zrotation
					JOINT HairG1
					{
						OFFSET -0.293600 -6.081398 -0.910100
						CHANNELS 3 Xrotation Yrotation Zrotation
						End Site
						{
							OFFSET 0.000000 6.156120 0.000000
						}
					}
				}
			}
		}
	}
	JOINT Pouch
	{
		OFFSET 0.000000 4.394501 10.847300
		CHANNELS 3 Xrotation Yrotation Zrotation
		End Site
		{
			OFFSET 0.000000 21.880577 0.000000
		}
	}
	JOINT Bag
	{
		OFFSET -13.229000 4.813004 -0.593300
		CHANNELS 3 Xrotation Yrotation Zrotation
		End Site
		{
			OFFSET 0.000000 21.880577 0.000000
		}
	}
	JOINT OccupyGuyFacialAnim_Joint
	{
		OFFSET 1.000000 -70.206398 -1.655000
		CHANNELS 3 Xrotation Yrotation Zrotation
		End Site
		{
			OFFSET 0.000000 21.880577 0.000000
		}
	}
}
MOTION
Frames: 4
Frame Time: 0.033333
0.649908 70.292397 7.711029 -6.597316 21.681290 2.933254 0.000000 0.000001 -0.000000 -10.235329 6.413475 10.578179 17.062499 3.876643 3.055676 -0.467964 0.983796 -14.135853 0.000000 -0.000001 0.000000 -0.000000 0.000000 0.000000 0.146444 -15.200103 5.205595 19.683482 8.973710 -4.382081 -14.217750 -17.791630 -5.267686 0.000000 -0.000000 0.000000 0.000000 -0.000000 -0.000000 9.414045 1.873287 7.921262 2.408421 -0.024413 -1.469509 2.422059 -0.093040 -1.462133 2.610593 -0.695721 1.213952 10.122544 -4.454176 0.364199 0.000001 -0.000001 0.000001 0.000001 -0.000001 0.000001 0.000001 -0.000001 0.000001 0.000001 -0.000001 0.000001 -0.000000 0.000001 -0.000000 0.000001 -0.000001 0.000001 -0.000000 0.000001 -0.000000 0.000001 -0.000001 0.000001 0.000001 -0.000001 0.000001 0.989295 2.680909 -16.188692 3.197447 -15.288229 -60.004755 -0.000003 -25.020026 -0.000005 18.233342 5.102515 -6.216403 -1.114205 0.645776 4.352976 11.684615 23.834714 16.682170 0.000001 0.000002 0.000003 -0.310854 -1.086155 -5.928403 0.220491 1.593652 -15.753164 0.000001 0.000000 0.000002 -0.084537 2.577140 -15.034406 0.248727 1.690511 -16.738427 -0.000001 -0.000000 0.000001 0.123241 3.772440 -24.718738 0.527434 2.431251 -24.476852 -0.000001 -0.000000 0.000002 1.535582 6.301510 -35.015556 0.561153 2.503924 -25.259979 -0.000000 -0.000000 0.000001 0.000001 -0.000002 -0.000000 -0.828322 13.529231 23.864210 -15.056763 -9.403453 51.821994 0.000004 9.405503 -0.000024 18.112197 -7.171741 2.833549 -1.487716 -0.134666 -4.463505 12.936896 -29.875797 -16.429192 0.000002 -0.000002 0.000002 -0.025129 1.589661 1.231832 0.080427 -0.862702 10.652273 -0.000003 0.000000 0.000004 0.378859 -4.337970 38.927434 1.165972 -3.084232 41.409384 0.000001 -0.000001 0.000001 0.854854 -5.006265 44.431504 1.361435 -3.292318 44.923039 0.000001 -0.000004 -0.000002 2.117185 -6.178155 50.532543 1.165468 -3.083663 41.400003 -0.000001 0.000003 -0.000001 0.000002 -0.000002 0.000000 0.000000 0.000000 0.000000 0.000000 -0.000001 -0.000000 0.000000 0.000000 0.000000 0.000000 0.000000 0.000000 0.000000 0.000000 0.000000 0.000000 -0.000001 -0.000000 0.000000 0.000000 0.000000 0.000000 0.000000 0.000000 0.000000 0.000000 0.000000 0.000000 -0.000001 -0.000000 0.000000 0.000001 -0.000000 0.000000 0.000001 -0.000000 0.000000 0.000001 -0.000000 
0.707293 70.311523 7.579730 -6.529106 21.346238 2.981416 -0.000000 0.000001 -0.000000 -10.226425 6.327041 10.356401 17.140064 4.069898 3.033619 -0.755173 1.026745 -14.201718 -0.000000 0.000001 0.000000 -0.000000 0.000002 0.000001 -0.112884 -15.271200 4.921640 19.769866 8.928157 -4.337177 -14.088912 -17.339064 -5.154212 0.000000 0.000000 -0.000000 -0.000000 -0.000001 -0.000000 9.622659 1.740739 8.018178 2.426580 -0.062480 -1.431377 2.440071 -0.130876 -1.423106 2.573203 -0.614252 1.186558 9.928994 -3.655012 0.121165 -0.000001 0.000000 -0.000000 -0.000001 0.000000 -0.000000 -0.000001 0.000000 0.000000 -0.000001 0.000000 -0.000000 -0.000001 -0.000001 0.000001 -0.000001 0.000000 -0.000000 -0.000001 -0.000001 0.000001 -0.000001 0.000000 -0.000000 -0.000001 0.000000 -0.000000 0.982422 2.658385 -16.124695 3.101692 -15.569847 -60.041550 0.000002 -25.381145 0.000004 17.978152 4.989072 -6.161067 -1.212481 0.319105 4.246393 11.645665 23.492523 16.602470 0.000001 0.000002 0.000001 -0.289274 -1.123449 -5.573856 0.210649 1.558362 -15.395415 -0.000000 0.000000 -0.000002 -0.085843 2.536032 -14.642090 0.237264 1.651935 -16.345435 0.000002 -0.000000 0.000001 0.110928 3.718769 -24.166881 0.504265 2.379740 -23.924739 -0.000002 0.000001 -0.000003 1.485614 6.245229 -34.298761 0.530424 2.437781 -24.547003 0.000001 -0.000001 -0.000003 -0.000001 0.000001 -0.000002 -0.831129 13.609339 23.794789 -14.014422 -9.152011 51.988965 0.000006 7.256005 0.000000 29.221530 -9.209951 10.588452 -1.489034 -0.134911 -4.461722 12.934786 -29.875616 -16.428174 0.000001 0.000002 -0.000000 -0.033305 1.582003 1.352398 0.082659 -0.874461 10.799111 -0.000001 -0.000001 0.000002 0.237453 -4.030116 35.244196 0.974882 -2.853273 37.721127 -0.000001 0.000001 -0.000001 0.673517 -4.737153 40.741573 1.156549 -3.073563 41.234156 0.000001 -0.000006 -0.000003 1.880375 -6.012598 46.829747 0.974483 -2.852745 37.713019 0.000001 0.000001 0.000001 0.000002 0.000001 0.000000 -0.000000 0.000001 0.000001 -0.000000 0.000001 0.000001 -0.000000 0.000001 0.000001 -0.000000 0.000001 0.000001 -0.000000 0.000001 0.000001 -0.000000 0.000001 0.000001 -0.000000 0.000001 0.000001 -0.000000 0.000001 0.000001 -0.000000 0.000001 0.000001 -0.000000 0.000001 0.000001 -0.000000 0.000001 -0.000000 -0.000000 0.000001 -0.000000 -0.000000 0.000001 -0.000000 
0.772356 70.365936 7.440218 -6.432729 20.960257 3.023707 -0.000000 -0.000000 -0.000000 -10.185211 6.310180 10.033065 17.313298 3.386602 2.943543 -1.318328 1.091445 -14.050867 -0.000000 -0.000001 -0.000000 0.000001 0.000001 0.000001 -0.239271 -15.287244 4.635691 19.519810 9.166051 -4.238717 -13.780068 -17.108739 -5.093866 -0.000000 -0.000000 0.000000 -0.000000 0.000000 -0.000001 9.818394 1.591546 8.083852 2.433392 -0.102666 -1.399986 2.446747 -0.169779 -1.390956 2.544614 -0.534558 1.176674 9.711966 -2.838434 0.030709 -0.000000 -0.000001 -0.000000 -0.000000 -0.000001 -0.000000 -0.000000 -0.000001 0.000000 -0.000000 -0.000001 0.000000 -0.000000 -0.000003 0.000000 -0.000000 -0.000001 0.000000 -0.000000 -0.000003 0.000000 -0.000000 -0.000001 -0.000000 -0.000000 -0.000001 -0.000000 0.980674 2.682802 -16.059245 2.923732 -15.892457 -60.061064 -0.000002 -25.527765 0.000008 17.694450 4.724949 -5.995809 -1.325518 -0.054480 4.123565 11.600678 23.100748 16.511726 -0.000001 -0.000000 -0.000004 -0.264325 -1.166102 -5.168148 0.199664 1.517907 -14.986024 0.000003 -0.000001 0.000001 -0.087002 2.488961 -14.193166 0.224478 1.607698 -15.895734 -0.000000 0.000000 0.000001 0.097311 3.656899 -23.535454 0.478356 2.320523 -23.293078 -0.000000 0.000001 0.000001 1.429474 6.180239 -33.478633 0.496261 2.361624 -23.731214 0.000001 -0.000001 -0.000001 0.000000 -0.000002 0.000000 -0.810921 13.518240 23.697445 -13.024399 -8.656096 52.196374 -0.000008 6.888264 0.000011 39.386006 -9.422373 14.666392 -1.490348 -0.135186 -4.459883 12.932694 -29.875446 -16.427138 0.000001 0.000004 0.000002 -0.041835 1.573958 1.478206 0.085009 -0.886688 10.952266 -0.000001 0.000000 0.000000 0.119278 -3.716726 31.608637 0.801172 -2.613582 34.079895 0.000001 -0.000001 -0.000003 0.512978 -4.459707 37.099569 0.968471 -2.844984 37.592337 0.000001 -0.000001 -0.000002 1.657011 -5.835102 43.174432 0.800864 -2.613127 34.073017 -0.000000 -0.000001 0.000000 -0.000001 0.000000 0.000000 0.000001 -0.000001 -0.000000 -0.000000 -0.000001 0.000000 0.000001 -0.000001 0.000000 0.000001 -0.000001 0.000000 0.000001 -0.000001 -0.000000 -0.000000 -0.000001 0.000000 0.000001 -0.000001 0.000000 0.000001 -0.000001 0.000000 0.000001 -0.000001 -0.000000 -0.000000 -0.000001 0.000000 -0.000000 -0.000000 -0.000000 -0.000000 -0.000000 -0.000000 -0.000000 -0.000000 -0.000000 
0.844618 70.456795 7.300461 -6.405765 20.455699 3.093435 -0.000000 -0.000001 -0.000000 -10.224311 6.435769 9.612030 18.316689 0.717467 2.704769 -2.847334 1.216595 -13.424719 -0.000000 -0.000000 -0.000000 -0.000001 -0.000002 -0.000000 -0.119799 -15.270233 4.355964 18.921519 9.657497 -4.118808 -13.285681 -17.018303 -5.050663 -0.000000 -0.000000 -0.000000 0.000001 -0.000000 -0.000001 10.075819 1.365546 8.083534 2.438513 -0.160700 -1.368693 2.451593 -0.225921 -1.358542 2.540234 -0.448818 1.166718 9.505868 -2.000682 -0.009273 -0.000000 -0.000000 -0.000000 -0.000000 -0.000000 -0.000000 -0.000000 -0.000000 -0.000000 -0.000000 -0.000000 -0.000000 -0.000000 -0.000000 -0.000000 -0.000000 -0.000000 -0.000000 -0.000000 -0.000000 -0.000000 -0.000000 -0.000000 -0.000000 -0.000000 -0.000000 -0.000000 0.982833 2.741142 -16.055039 2.709765 -16.140143 -60.026243 -0.000007 -25.462944 -0.000018 17.224082 4.342890 -5.597507 -1.451757 -0.468798 3.986306 11.550177 22.665715 16.411708 0.000002 0.000002 0.000001 -0.236286 -1.213343 -4.717863 0.187805 1.472917 -14.531709 0.000000 0.000000 -0.000000 -0.087854 2.436698 -13.694973 0.210684 1.558493 -15.396602 -0.000001 0.000001 -0.000001 0.082862 3.587846 -22.834746 0.450378 2.254477 -22.592032 -0.000002 0.000001 0.000001 1.368406 6.107327 -32.568688 0.459627 2.276543 -22.825937 -0.000000 -0.000001 0.000003 0.000001 0.000000 -0.000002 -0.783243 13.330752 23.643005 -12.043845 -8.074666 52.404449 0.000004 7.069872 0.000000 45.398642 -8.015288 15.209783 -1.491702 -0.135404 -4.457974 12.930534 -29.875295 -16.426081 -0.000001 -0.000005 0.000001 -0.050679 1.565583 1.608865 0.087483 -0.899406 11.111347 -0.000001 -0.000001 0.000002 0.026175 -3.407679 28.111585 0.648735 -2.372938 30.576725 -0.000001 0.000000 -0.000001 0.376490 -4.182830 33.596454 0.801591 -2.614192 34.088661 0.000001 -0.000003 0.000001 1.452646 -5.651732 39.658141 0.648501 -2.372530 30.571049 -0.000001 -0.000000 0.000004 0.000001 0.000000 -0.000000 0.000001 0.000001 -0.000000 0.000001 -0.000000 0.000001 0.000001 0.000001 0.000000 0.000001 0.000001 0.000000 0.000001 0.000001 -0.000000 0.000001 -0.000000 0.000001 0.000001 0.000001 0.000000 0.000001 0.000001 0.000000 0.000001 0.000001 -0.000000 0.000001 -0.000000 0.000001 -0.000000 -0.000001 -0.000000 -0.000000 -0.000001 -0.000000 -0.000000 -0.000001 -0.000000 
